<svg width="350" height="200" viewBox="0 0 350 200" xmlns="http://www.w3.org/2000/svg">
  <defs>
    <!-- Luxury gradients -->
    <linearGradient id="cardGradientVerso" x1="0%" y1="0%" x2="100%" y2="100%">
      <stop offset="0%" stop-color="#1A1A1A" />
      <stop offset="50%" stop-color="#2D2D2D" />
      <stop offset="100%" stop-color="#1A1A1A" />
    </linearGradient>
    <linearGradient id="logoGradientVerso" x1="0%" y1="0%" x2="100%" y2="100%">
      <stop offset="0%" stop-color="#D4AF37" />
      <stop offset="25%" stop-color="#FFD700" />
      <stop offset="50%" stop-color="#F4E5B1" />
      <stop offset="75%" stop-color="#FFD700" />
      <stop offset="100%" stop-color="#B8860B" />
    </linearGradient>
    <linearGradient id="textGradientVerso" x1="0%" y1="0%" x2="100%" y2="0%">
      <stop offset="0%" stop-color="#FFD700" />
      <stop offset="50%" stop-color="#F4E5B1" />
      <stop offset="100%" stop-color="#D4AF37" />
    </linearGradient>
    <linearGradient id="borderGradientVerso" x1="0%" y1="0%" x2="100%" y2="100%">
      <stop offset="0%" stop-color="#D4AF37" />
      <stop offset="50%" stop-color="#FFD700" />
      <stop offset="100%" stop-color="#B8860B" />
    </linearGradient>
    <filter id="cardGlowVerso" x="-20%" y="-20%" width="140%" height="140%">
      <feGaussianBlur stdDeviation="3" result="coloredBlur"/>
      <feMerge> 
        <feMergeNode in="coloredBlur"/>
        <feMergeNode in="SourceGraphic"/>
      </feMerge>
    </filter>
  </defs>
  
  <!-- Card Background -->
  <rect width="350" height="200" rx="15" fill="url(#cardGradientVerso)" stroke="url(#borderGradientVerso)" stroke-width="2" filter="url(#cardGlowVerso)"/>
  
  <!-- Luxury texture pattern -->
  <pattern id="textureVerso" patternUnits="userSpaceOnUse" width="6" height="6">
    <rect width="6" height="6" fill="transparent"/>
    <circle cx="3" cy="3" r="0.4" fill="#FFD700" opacity="0.08"/>
  </pattern>
  <rect width="350" height="200" rx="15" fill="url(#textureVerso)" opacity="0.4"/>
  
  <!-- Central Logo - Larger -->
  <g transform="translate(175, 100)">
    <!-- Outer ring -->
    <circle 
      cx="0" 
      cy="0" 
      r="45" 
      fill="none"
      stroke="url(#logoGradientVerso)"
      stroke-width="2"
      opacity="0.8"
    />
    
    <!-- Main hexagon -->
    <path 
      d="M0 -35 L30 -17 L30 17 L0 35 L-30 17 L-30 -17 Z" 
      fill="url(#logoGradientVerso)" 
      opacity="0.9"
    />
    
    <!-- Inner background -->
    <path 
      d="M0 -28 L24 -14 L24 14 L0 28 L-24 14 L-24 -14 Z" 
      fill="url(#cardGradientVerso)"
    />
    
    <!-- Premium "M" letterform -->
    <path 
      d="M-14 -10 L-8 -10 L0 6 L8 -10 L14 -10 L14 14 L10 14 L10 -4 L4 8 L-4 8 L-10 -4 L-10 14 L-14 14 Z"
      fill="url(#logoGradientVerso)"
    />
    
    <!-- Luxury accents -->
    <circle cx="28" cy="-22" r="2" fill="#FFD700" opacity="0.8" />
    <circle cx="-28" cy="22" r="1.5" fill="#D4AF37" opacity="0.6" />
    <polygon points="30,20 32,18 32,22" fill="#B8860B" opacity="0.4" />
  </g>
  
  <!-- Company Name - Top -->
  <g transform="translate(175, 40)">
    <text x="0" y="0" font-family="Cinzel, serif" font-size="28" font-weight="bold" fill="url(#textGradientVerso)" text-anchor="middle" letter-spacing="2px">MVA</text>
    <text x="0" y="18" font-family="Playfair Display, serif" font-size="14" font-weight="500" fill="#B8B8B8" text-anchor="middle" letter-spacing="4px">IMOBILIARE</text>
  </g>
  
  <!-- Tagline - Bottom -->
  <g transform="translate(175, 180)">
    <text x="0" y="0" font-family="Playfair Display, serif" font-size="16" font-weight="600" fill="url(#textGradientVerso)" text-anchor="middle" letter-spacing="2px">Premium Real Estate</text>
  </g>
  
  <!-- Decorative Elements -->
  <g opacity="0.3">
    <!-- Corner decorations -->
    <circle cx="30" cy="30" r="3" fill="url(#logoGradientVerso)" opacity="0.4"/>
    <circle cx="320" cy="30" r="2.5" fill="url(#logoGradientVerso)" opacity="0.3"/>
    <circle cx="30" cy="170" r="2" fill="url(#logoGradientVerso)" opacity="0.2"/>
    <circle cx="320" cy="170" r="3.5" fill="url(#logoGradientVerso)" opacity="0.4"/>
    
    <!-- Elegant corner lines -->
    <path d="M20 20 L40 20 L40 40" stroke="url(#logoGradientVerso)" stroke-width="1" fill="none" opacity="0.3"/>
    <path d="M330 20 L310 20 L310 40" stroke="url(#logoGradientVerso)" stroke-width="1" fill="none" opacity="0.3"/>
    <path d="M20 180 L40 180 L40 160" stroke="url(#logoGradientVerso)" stroke-width="1" fill="none" opacity="0.3"/>
    <path d="M330 180 L310 180 L310 160" stroke="url(#logoGradientVerso)" stroke-width="1" fill="none" opacity="0.3"/>
  </g>
</svg>