<svg width="350" height="200" viewBox="0 0 350 200" xmlns="http://www.w3.org/2000/svg">
  <defs>
    <!-- Luxury gradients -->
    <linearGradient id="cardGradientVerso" x1="0%" y1="0%" x2="100%" y2="100%">
      <stop offset="0%" stop-color="#1A1A1A" />
      <stop offset="50%" stop-color="#2D2D2D" />
      <stop offset="100%" stop-color="#1A1A1A" />
    </linearGradient>
    <linearGradient id="logoGradientVerso" x1="0%" y1="0%" x2="100%" y2="100%">
      <stop offset="0%" stop-color="#D4AF37" />
      <stop offset="25%" stop-color="#FFD700" />
      <stop offset="50%" stop-color="#F4E5B1" />
      <stop offset="75%" stop-color="#FFD700" />
      <stop offset="100%" stop-color="#B8860B" />
    </linearGradient>
    <linearGradient id="textGradientVerso" x1="0%" y1="0%" x2="100%" y2="0%">
      <stop offset="0%" stop-color="#FFD700" />
      <stop offset="50%" stop-color="#F4E5B1" />
      <stop offset="100%" stop-color="#D4AF37" />
    </linearGradient>
    <linearGradient id="borderGradientVerso" x1="0%" y1="0%" x2="100%" y2="100%">
      <stop offset="0%" stop-color="#D4AF37" />
      <stop offset="50%" stop-color="#FFD700" />
      <stop offset="100%" stop-color="#B8860B" />
    </linearGradient>
    <filter id="cardGlowVerso" x="-20%" y="-20%" width="140%" height="140%">
      <feGaussianBlur stdDeviation="3" result="coloredBlur"/>
      <feMerge> 
        <feMergeNode in="coloredBlur"/>
        <feMergeNode in="SourceGraphic"/>
      </feMerge>
    </filter>
  </defs>
  
  <!-- Card Background -->
  <rect width="350" height="200" rx="15" fill="url(#cardGradientVerso)" stroke="url(#borderGradientVerso)" stroke-width="2" filter="url(#cardGlowVerso)"/>
  
  <!-- Luxury texture pattern -->
  <pattern id="textureVerso" patternUnits="userSpaceOnUse" width="6" height="6">
    <rect width="6" height="6" fill="transparent"/>
    <circle cx="3" cy="3" r="0.4" fill="#FFD700" opacity="0.08"/>
  </pattern>
  <rect width="350" height="200" rx="15" fill="url(#textureVerso)" opacity="0.4"/>
  
  <!-- Central Logo - Smaller -->
  <g transform="translate(175, 100)">
    <!-- Outer ring -->
    <circle 
      cx="0" 
      cy="0" 
      r="25" 
      fill="none"
      stroke="url(#logoGradientVerso)"
      stroke-width="1.2"
      opacity="0.8"
    />
    
    <!-- Main hexagon -->
    <path 
      d="M0 -20 L17 -10 L17 10 L0 20 L-17 10 L-17 -10 Z" 
      fill="url(#logoGradientVerso)" 
      opacity="0.9"
    />
    
    <!-- Inner background -->
    <path 
      d="M0 -16 L14 -8 L14 8 L0 16 L-14 8 L-14 -8 Z" 
      fill="url(#cardGradientVerso)"
    />
    
    <!-- Premium "M" letterform - smaller -->
    <path 
      d="M-7 -4 L-4 -4 L0 2 L4 -4 L7 -4 L7 7 L4 7 L4 -1 L1 3 L-1 3 L-4 -1 L-4 7 L-7 7 Z"
      fill="url(#logoGradientVerso)"
    />
    
    <!-- Luxury accents -->
    <circle cx="16" cy="-12" r="1" fill="#FFD700" opacity="0.8" />
    <circle cx="-16" cy="12" r="0.8" fill="#D4AF37" opacity="0.6" />
    <polygon points="17,11 19,9 19,13" fill="#B8860B" opacity="0.4" />
  </g>
  
  <!-- Company Name - Above Logo -->
  <g transform="translate(175, 55)">
    <text x="0" y="0" font-family="Cinzel, serif" font-size="20" font-weight="bold" fill="url(#textGradientVerso)" text-anchor="middle" letter-spacing="2px">MVA</text>
    <text x="0" y="14" font-family="Playfair Display, serif" font-size="10" font-weight="500" fill="#B8B8B8" text-anchor="middle" letter-spacing="3px">IMOBILIARE</text>
  </g>
  
  <!-- Tagline - Below Logo -->
  <g transform="translate(175, 155)">
    <text x="0" y="0" font-family="Playfair Display, serif" font-size="12" font-weight="500" fill="#B8B8B8" text-anchor="middle" letter-spacing="1px">Excelență în imobiliare</text>
  </g>
  
  <!-- Decorative Elements -->
  <g opacity="0.3">
    <!-- Corner decorations -->
    <circle cx="30" cy="30" r="3" fill="url(#logoGradientVerso)" opacity="0.4"/>
    <circle cx="320" cy="30" r="2.5" fill="url(#logoGradientVerso)" opacity="0.3"/>
    <circle cx="30" cy="170" r="2" fill="url(#logoGradientVerso)" opacity="0.2"/>
    <circle cx="320" cy="170" r="3.5" fill="url(#logoGradientVerso)" opacity="0.4"/>
    
    <!-- Elegant corner lines -->
    <path d="M20 20 L40 20 L40 40" stroke="url(#logoGradientVerso)" stroke-width="1" fill="none" opacity="0.3"/>
    <path d="M330 20 L310 20 L310 40" stroke="url(#logoGradientVerso)" stroke-width="1" fill="none" opacity="0.3"/>
    <path d="M20 180 L40 180 L40 160" stroke="url(#logoGradientVerso)" stroke-width="1" fill="none" opacity="0.3"/>
    <path d="M330 180 L310 180 L310 160" stroke="url(#logoGradientVerso)" stroke-width="1" fill="none" opacity="0.3"/>
  </g>
</svg>