<svg width="350" height="200" viewBox="0 0 350 200" xmlns="http://www.w3.org/2000/svg">
  <defs>
    <!-- Luxury gradients -->
    <linearGradient id="cardGradient" x1="0%" y1="0%" x2="100%" y2="100%">
      <stop offset="0%" stop-color="#1A1A1A" />
      <stop offset="50%" stop-color="#2D2D2D" />
      <stop offset="100%" stop-color="#1A1A1A" />
    </linearGradient>
    <linearGradient id="logoGradientCard" x1="0%" y1="0%" x2="100%" y2="100%">
      <stop offset="0%" stop-color="#D4AF37" />
      <stop offset="25%" stop-color="#FFD700" />
      <stop offset="50%" stop-color="#F4E5B1" />
      <stop offset="75%" stop-color="#FFD700" />
      <stop offset="100%" stop-color="#B8860B" />
    </linearGradient>
    <linearGradient id="textGradientCard" x1="0%" y1="0%" x2="100%" y2="0%">
      <stop offset="0%" stop-color="#FFD700" />
      <stop offset="50%" stop-color="#F4E5B1" />
      <stop offset="100%" stop-color="#D4AF37" />
    </linearGradient>
    <linearGradient id="borderGradient" x1="0%" y1="0%" x2="100%" y2="100%">
      <stop offset="0%" stop-color="#D4AF37" />
      <stop offset="50%" stop-color="#FFD700" />
      <stop offset="100%" stop-color="#B8860B" />
    </linearGradient>
    <filter id="cardGlow" x="-20%" y="-20%" width="140%" height="140%">
      <feGaussianBlur stdDeviation="3" result="coloredBlur"/>
      <feMerge> 
        <feMergeNode in="coloredBlur"/>
        <feMergeNode in="SourceGraphic"/>
      </feMerge>
    </filter>
  </defs>
  
  <!-- Card Background -->
  <rect width="350" height="200" rx="15" fill="url(#cardGradient)" stroke="url(#borderGradient)" stroke-width="2" filter="url(#cardGlow)"/>
  
  <!-- Luxury texture pattern -->
  <pattern id="texture" patternUnits="userSpaceOnUse" width="4" height="4">
    <rect width="4" height="4" fill="transparent"/>
    <circle cx="2" cy="2" r="0.3" fill="#FFD700" opacity="0.1"/>
  </pattern>
  <rect width="350" height="200" rx="15" fill="url(#texture)" opacity="0.3"/>
  
  <!-- Logo Section -->
  <g transform="translate(20, 20)">
    <!-- Logo Symbol -->
    <g>
      <!-- Outer ring -->
      <circle 
        cx="20" 
        cy="20" 
        r="18" 
        fill="none"
        stroke="url(#logoGradientCard)"
        stroke-width="1.2"
        opacity="0.9"
      />
      
      <!-- Main hexagon -->
      <path 
        d="M20 4 L33 10 L33 30 L20 36 L7 30 L7 10 Z" 
        fill="url(#logoGradientCard)" 
        opacity="0.95"
      />
      
      <!-- Inner background -->
      <path 
        d="M20 7 L30 12 L30 28 L20 33 L10 28 L10 12 Z" 
        fill="url(#cardGradient)"
      />
      
      <!-- "M" letter -->
      <path 
        d="M15 16 L17 16 L20 22 L23 16 L25 22 L25 26 L23 26 L23 19 L21 23 L19 23 L17 19 L17 26 L15 26 Z"
        fill="url(#logoGradientCard)"
      />
      
      <!-- Accents -->
      <circle cx="30" cy="10" r="0.8" fill="#FFD700" opacity="0.8" />
      <circle cx="10" cy="30" r="0.6" fill="#D4AF37" opacity="0.6" />
    </g>
    
    <!-- Company Text -->
    <text x="50" y="18" font-family="Cinzel, serif" font-size="12" font-weight="bold" fill="url(#textGradientCard)" letter-spacing="1px">MVA</text>
    <text x="50" y="28" font-family="Playfair Display, serif" font-size="7" font-weight="500" fill="#B8B8B8" letter-spacing="2px">IMOBILIARE</text>
    <line x1="50" y1="32" x2="120" y2="32" stroke="url(#logoGradientCard)" stroke-width="0.5" opacity="0.6"/>
  </g>
  
  <!-- Main Content Area -->
  <g transform="translate(20, 80)">
    <!-- Name and Title -->
    <text x="0" y="0" font-family="Cinzel, serif" font-size="18" font-weight="bold" fill="#FFFFFF" letter-spacing="0.5px">Viorel Miulet</text>
    <text x="0" y="18" font-family="Playfair Display, serif" font-size="12" font-weight="500" fill="url(#textGradientCard)" letter-spacing="1px">Agent Imobiliar</text>
    
    <!-- Decorative line -->
    <line x1="0" y1="25" x2="80" y2="25" stroke="url(#logoGradientCard)" stroke-width="1" opacity="0.8"/>
  </g>
  
  <!-- Contact Information -->
  <g transform="translate(20, 125)">
    <!-- Phone -->
    <g>
      <circle cx="4" cy="4" r="3" fill="url(#logoGradientCard)" opacity="0.2"/>
      <path d="M2 2 L3 2 L4 3 L4 4 L5 5 L6 5 L6 4 L5 3 L4 2 L3 1 L2 2" fill="url(#logoGradientCard)" transform="scale(0.8)"/>
      <text x="15" y="7" font-family="Inter, sans-serif" font-size="10" fill="#E0E0E0">0767 941 512</text>
    </g>
    
    <!-- Email -->
    <g transform="translate(0, 20)">
      <circle cx="4" cy="4" r="3" fill="url(#logoGradientCard)" opacity="0.2"/>
      <rect x="1.5" y="2.5" width="5" height="3" rx="0.5" fill="none" stroke="url(#logoGradientCard)" stroke-width="0.5"/>
      <path d="M2 3 L4 4.5 L6 3" fill="none" stroke="url(#logoGradientCard)" stroke-width="0.4"/>
      <text x="15" y="7" font-family="Inter, sans-serif" font-size="10" fill="#E0E0E0">mvaperfectbusiness@gmail.com</text>
    </g>
    
    <!-- Address -->
    <g transform="translate(0, 40)">
      <circle cx="4" cy="4" r="3" fill="url(#logoGradientCard)" opacity="0.2"/>
      <path d="M4 1 C5.5 1 6.5 2 6.5 3.5 C6.5 5.5 4 8 4 8 S1.5 5.5 1.5 3.5 C1.5 2 2.5 1 4 1 Z M4 2.5 C3.2 2.5 2.5 3.2 2.5 4 S3.2 5.5 4 5.5 S5.5 4.8 5.5 4 S4.8 2.5 4 2.5 Z" fill="url(#logoGradientCard)" transform="scale(0.7)"/>
      <text x="15" y="4" font-family="Inter, sans-serif" font-size="9" fill="#E0E0E0">Chiajna, str. Tineretului nr. 17</text>
      <text x="15" y="15" font-family="Inter, sans-serif" font-size="9" fill="#E0E0E0">bl. 2 parter ap 24</text>
    </g>
  </g>
  
  <!-- Right Side - Details -->
  <g transform="translate(200, 25)">
    <!-- Services -->
    <text x="0" y="20" font-family="Inter, sans-serif" font-size="9" font-weight="500" fill="#C0C0C0">Vanzari apartamente direct</text>
    <text x="0" y="32" font-family="Inter, sans-serif" font-size="9" font-weight="500" fill="#C0C0C0">de la dezvoltator</text>
    
    <!-- WhatsApp QR Code - Much Larger and moved right -->
    <g transform="translate(30, 55)">
      <rect x="0" y="0" width="70" height="70" rx="5" fill="#FFFFFF" stroke="url(#logoGradientCard)" stroke-width="1.5"/>
      <!-- QR Code Pattern - Much Larger -->
      <g fill="url(#logoGradientCard)">
        <!-- Corner squares -->
        <rect x="5" y="5" width="12" height="12"/>
        <rect x="53" y="5" width="12" height="12"/>
        <rect x="5" y="53" width="12" height="12"/>
        <!-- Inner corner squares -->
        <rect x="8" y="8" width="6" height="6" fill="#FFFFFF"/>
        <rect x="56" y="8" width="6" height="6" fill="#FFFFFF"/>
        <rect x="8" y="56" width="6" height="6" fill="#FFFFFF"/>
        <!-- Data pattern - much larger -->
        <rect x="22" y="5" width="2" height="2"/>
        <rect x="26" y="5" width="2" height="2"/>
        <rect x="30" y="5" width="2" height="2"/>
        <rect x="36" y="5" width="2" height="2"/>
        <rect x="42" y="5" width="2" height="2"/>
        <rect x="22" y="9" width="2" height="2"/>
        <rect x="30" y="9" width="2" height="2"/>
        <rect x="34" y="9" width="2" height="2"/>
        <rect x="40" y="9" width="2" height="2"/>
        <rect x="42" y="9" width="2" height="2"/>
        <rect x="22" y="13" width="2" height="2"/>
        <rect x="26" y="13" width="2" height="2"/>
        <rect x="34" y="13" width="2" height="2"/>
        <rect x="36" y="13" width="2" height="2"/>
        <rect x="42" y="13" width="2" height="2"/>
        <rect x="5" y="22" width="2" height="2"/>
        <rect x="9" y="22" width="2" height="2"/>
        <rect x="16" y="22" width="2" height="2"/>
        <rect x="22" y="22" width="2" height="2"/>
        <rect x="30" y="22" width="2" height="2"/>
        <rect x="36" y="22" width="2" height="2"/>
        <rect x="42" y="22" width="2" height="2"/>
        <rect x="5" y="26" width="2" height="2"/>
        <rect x="12" y="26" width="2" height="2"/>
        <rect x="18" y="26" width="2" height="2"/>
        <rect x="26" y="26" width="2" height="2"/>
        <rect x="34" y="26" width="2" height="2"/>
        <rect x="40" y="26" width="2" height="2"/>
        <rect x="5" y="30" width="2" height="2"/>
        <rect x="9" y="30" width="2" height="2"/>
        <rect x="16" y="30" width="2" height="2"/>
        <rect x="22" y="30" width="2" height="2"/>
        <rect x="30" y="30" width="2" height="2"/>
        <rect x="36" y="30" width="2" height="2"/>
        <rect x="42" y="30" width="2" height="2"/>
        <rect x="22" y="36" width="2" height="2"/>
        <rect x="26" y="36" width="2" height="2"/>
        <rect x="34" y="36" width="2" height="2"/>
        <rect x="40" y="36" width="2" height="2"/>
        <rect x="42" y="36" width="2" height="2"/>
        <rect x="22" y="40" width="2" height="2"/>
        <rect x="30" y="40" width="2" height="2"/>
        <rect x="34" y="40" width="2" height="2"/>
        <rect x="36" y="40" width="2" height="2"/>
        <rect x="42" y="40" width="2" height="2"/>
        <rect x="22" y="44" width="2" height="2"/>
        <rect x="26" y="44" width="2" height="2"/>
        <rect x="30" y="44" width="2" height="2"/>
        <rect x="36" y="44" width="2" height="2"/>
        <rect x="40" y="44" width="2" height="2"/>
        <rect x="53" y="22" width="2" height="2"/>
        <rect x="56" y="22" width="2" height="2"/>
        <rect x="62" y="22" width="2" height="2"/>
        <rect x="53" y="26" width="2" height="2"/>
        <rect x="60" y="26" width="2" height="2"/>
        <rect x="62" y="26" width="2" height="2"/>
        <rect x="53" y="30" width="2" height="2"/>
        <rect x="56" y="30" width="2" height="2"/>
        <rect x="62" y="30" width="2" height="2"/>
        <rect x="53" y="36" width="2" height="2"/>
        <rect x="60" y="36" width="2" height="2"/>
        <rect x="62" y="36" width="2" height="2"/>
        <rect x="53" y="40" width="2" height="2"/>
        <rect x="56" y="40" width="2" height="2"/>
        <rect x="60" y="40" width="2" height="2"/>
        <rect x="53" y="44" width="2" height="2"/>
        <rect x="62" y="44" width="2" height="2"/>
        <rect x="22" y="53" width="2" height="2"/>
        <rect x="26" y="53" width="2" height="2"/>
        <rect x="34" y="53" width="2" height="2"/>
        <rect x="36" y="53" width="2" height="2"/>
        <rect x="42" y="53" width="2" height="2"/>
        <rect x="22" y="57" width="2" height="2"/>
        <rect x="30" y="57" width="2" height="2"/>
        <rect x="34" y="57" width="2" height="2"/>
        <rect x="40" y="57" width="2" height="2"/>
        <rect x="42" y="57" width="2" height="2"/>
        <rect x="22" y="61" width="2" height="2"/>
        <rect x="26" y="61" width="2" height="2"/>
        <rect x="30" y="61" width="2" height="2"/>
        <rect x="36" y="61" width="2" height="2"/>
        <rect x="40" y="61" width="2" height="2"/>
        <rect x="42" y="61" width="2" height="2"/>
        <rect x="22" y="65" width="2" height="2"/>
        <rect x="30" y="65" width="2" height="2"/>
        <rect x="36" y="65" width="2" height="2"/>
        <rect x="42" y="65" width="2" height="2"/>
      </g>
    </g>
  </g>
  
  <!-- Decorative Elements -->
  <circle cx="320" cy="40" r="2" fill="url(#logoGradientCard)" opacity="0.3"/>
  <circle cx="310" cy="170" r="1.5" fill="url(#logoGradientCard)" opacity="0.2"/>
  <circle cx="330" cy="160" r="1" fill="#D4AF37" opacity="0.4"/>
  
  <!-- Bottom decorative line -->
  <line x1="20" y1="185" x2="330" y2="185" stroke="url(#logoGradientCard)" stroke-width="0.5" opacity="0.3"/>
</svg>