<svg width="32" height="32" viewBox="0 0 32 32" xmlns="http://www.w3.org/2000/svg">
  <defs>
    <linearGradient id="faviconGradient" x1="0%" y1="0%" x2="100%" y2="100%">
      <stop offset="0%" stop-color="#D4AF37" />
      <stop offset="25%" stop-color="#FFD700" />
      <stop offset="50%" stop-color="#F4E5B1" />
      <stop offset="75%" stop-color="#FFD700" />
      <stop offset="100%" stop-color="#B8860B" />
    </linearGradient>
    <linearGradient id="faviconInner" x1="0%" y1="0%" x2="100%" y2="100%">
      <stop offset="0%" stop-color="#1A1A1A" />
      <stop offset="50%" stop-color="#2D2D2D" />
      <stop offset="100%" stop-color="#1A1A1A" />
    </linearGradient>
  </defs>
  
  <!-- Main hexagon -->
  <path 
    d="M16 1 L29 8 L29 24 L16 31 L3 24 L3 8 Z" 
    fill="url(#faviconGradient)" 
  />
  
  <!-- Inner background -->
  <path 
    d="M16 3 L26 9 L26 23 L16 29 L6 23 L6 9 Z" 
    fill="url(#faviconInner)"
  />
  
  <!-- "M" letter -->
  <path 
    d="M10 12 L13 12 L16 18 L19 12 L22 12 L22 20 L20.5 20 L20.5 14.5 L18.5 18 L13.5 18 L11.5 14.5 L11.5 20 L10 20 Z"
    fill="url(#faviconGradient)"
  />
</svg>