<svg width="48" height="48" viewBox="0 0 48 48" xmlns="http://www.w3.org/2000/svg">
  <defs>
    <linearGradient id="gold48" x1="0%" y1="0%" x2="100%" y2="100%">
      <stop offset="0%" stop-color="#D4AF37" />
      <stop offset="25%" stop-color="#FFD700" />
      <stop offset="50%" stop-color="#F4E5B1" />
      <stop offset="75%" stop-color="#FFD700" />
      <stop offset="100%" stop-color="#B8860B" />
    </linearGradient>
    <linearGradient id="inner48" x1="0%" y1="0%" x2="100%" y2="100%">
      <stop offset="0%" stop-color="#1A1A1A" />
      <stop offset="50%" stop-color="#2D2D2D" />
      <stop offset="100%" stop-color="#1A1A1A" />
    </linearGradient>
    <filter id="glow48" x="-20%" y="-20%" width="140%" height="140%">
      <feGaussianBlur stdDeviation="1" result="coloredBlur"/>
      <feMerge>
        <feMergeNode in="coloredBlur"/>
        <feMergeNode in="SourceGraphic"/>
      </feMerge>
    </filter>
  </defs>
  <!-- Outer ring -->
  <circle cx="24" cy="24" r="22" fill="none" stroke="url(#gold48)" stroke-width="2" opacity="0.7"/>
  <!-- Hexagon background -->
  <path d="M24 3 L42 13 L42 35 L24 45 L6 35 L6 13 Z" fill="url(#gold48)" filter="url(#glow48)"/>
  <!-- Inner dark hexagon -->
  <path d="M24 6 L39 15 L39 33 L24 42 L9 33 L9 15 Z" fill="url(#inner48)"/>
  <!-- M letter -->
  <path d="M15 17 L19 17 L24 27 L29 17 L33 17 L33 31 L30 31 L30 21 L26 29 L22 29 L18 21 L18 31 L15 31 Z" fill="url(#gold48)"/>
  <!-- Corner accent -->
  <circle cx="38" cy="10" r="2" fill="#FFD700" opacity="0.8"/>
</svg>
